<mxfile host="app.diagrams.net" modified="2021-11-26T01:14:06.427Z" agent="5.0 (Windows NT 10.0; Win64; x64) AppleWebKit/537.36 (KHTML, like Gecko) Chrome/96.0.4664.45 Safari/537.36 Edg/96.0.1054.29" etag="Xg7BNM4MUmXFxre-5PKG" version="15.8.2" type="github">
  <diagram id="C5RBs43oDa-KdzZeNtuy" name="Page-1">
    <mxGraphModel dx="1483" dy="1996" grid="1" gridSize="10" guides="1" tooltips="1" connect="1" arrows="1" fold="1" page="1" pageScale="1" pageWidth="827" pageHeight="1169" background="#F1FAEE" math="0" shadow="0">
      <root>
        <mxCell id="WIyWlLk6GJQsqaUBKTNV-0" />
        <mxCell id="WIyWlLk6GJQsqaUBKTNV-1" parent="WIyWlLk6GJQsqaUBKTNV-0" />
        <mxCell id="JDIJm_OMKIt9SrlVdLeH-0" value="域名注册" style="rounded=0;whiteSpace=wrap;html=1;fillColor=#A8DADC;strokeColor=#457B9D;fontSize=21;fontStyle=0;fontColor=#1D3557;" parent="WIyWlLk6GJQsqaUBKTNV-1" vertex="1">
          <mxGeometry x="80" y="30" width="120" height="60" as="geometry" />
        </mxCell>
        <mxCell id="JDIJm_OMKIt9SrlVdLeH-45" style="edgeStyle=orthogonalEdgeStyle;curved=0;rounded=1;sketch=0;orthogonalLoop=1;jettySize=auto;html=1;entryX=0.447;entryY=0.033;entryDx=0;entryDy=0;entryPerimeter=0;fontColor=#1D3557;strokeColor=#457B9D;fillColor=#A8DADC;" parent="WIyWlLk6GJQsqaUBKTNV-1" source="JDIJm_OMKIt9SrlVdLeH-9" target="JDIJm_OMKIt9SrlVdLeH-42" edge="1">
          <mxGeometry relative="1" as="geometry" />
        </mxCell>
        <mxCell id="JDIJm_OMKIt9SrlVdLeH-9" value="业务方" style="shape=umlActor;verticalLabelPosition=bottom;verticalAlign=top;html=1;outlineConnect=0;rounded=0;sketch=0;strokeColor=#82b366;fillColor=#d5e8d4;" parent="WIyWlLk6GJQsqaUBKTNV-1" vertex="1">
          <mxGeometry x="290" y="80" width="30" height="60" as="geometry" />
        </mxCell>
        <mxCell id="JDIJm_OMKIt9SrlVdLeH-48" style="edgeStyle=orthogonalEdgeStyle;curved=0;rounded=1;sketch=0;orthogonalLoop=1;jettySize=auto;html=1;fontColor=#1D3557;strokeColor=#457B9D;fillColor=#A8DADC;" parent="WIyWlLk6GJQsqaUBKTNV-1" source="JDIJm_OMKIt9SrlVdLeH-10" target="JDIJm_OMKIt9SrlVdLeH-47" edge="1">
          <mxGeometry relative="1" as="geometry" />
        </mxCell>
        <mxCell id="JDIJm_OMKIt9SrlVdLeH-10" value="SRE" style="shape=umlActor;verticalLabelPosition=bottom;verticalAlign=top;html=1;outlineConnect=0;rounded=0;sketch=0;strokeColor=#82b366;fillColor=#d5e8d4;" parent="WIyWlLk6GJQsqaUBKTNV-1" vertex="1">
          <mxGeometry x="290" y="270" width="30" height="60" as="geometry" />
        </mxCell>
        <mxCell id="JDIJm_OMKIt9SrlVdLeH-54" style="edgeStyle=orthogonalEdgeStyle;curved=0;rounded=1;sketch=0;orthogonalLoop=1;jettySize=auto;html=1;fontColor=#1D3557;strokeColor=#457B9D;fillColor=#A8DADC;" parent="WIyWlLk6GJQsqaUBKTNV-1" source="JDIJm_OMKIt9SrlVdLeH-14" target="JDIJm_OMKIt9SrlVdLeH-50" edge="1">
          <mxGeometry relative="1" as="geometry" />
        </mxCell>
        <mxCell id="JDIJm_OMKIt9SrlVdLeH-14" value="域名注册--申请" style="rounded=1;whiteSpace=wrap;html=1;sketch=0;fontColor=#1D3557;strokeColor=#457B9D;fillColor=#A8DADC;" parent="WIyWlLk6GJQsqaUBKTNV-1" vertex="1">
          <mxGeometry x="245" y="480" width="120" height="60" as="geometry" />
        </mxCell>
        <mxCell id="JDIJm_OMKIt9SrlVdLeH-57" style="edgeStyle=orthogonalEdgeStyle;curved=0;rounded=1;sketch=0;orthogonalLoop=1;jettySize=auto;html=1;entryX=0.5;entryY=0;entryDx=0;entryDy=0;fontColor=#1D3557;strokeColor=#457B9D;fillColor=#A8DADC;" parent="WIyWlLk6GJQsqaUBKTNV-1" source="JDIJm_OMKIt9SrlVdLeH-22" target="JDIJm_OMKIt9SrlVdLeH-56" edge="1">
          <mxGeometry relative="1" as="geometry" />
        </mxCell>
        <mxCell id="JDIJm_OMKIt9SrlVdLeH-22" value="域名注册--审核" style="rounded=1;whiteSpace=wrap;html=1;sketch=0;fontColor=#1D3557;strokeColor=#457B9D;fillColor=#A8DADC;" parent="WIyWlLk6GJQsqaUBKTNV-1" vertex="1">
          <mxGeometry x="245" y="700" width="120" height="60" as="geometry" />
        </mxCell>
        <mxCell id="JDIJm_OMKIt9SrlVdLeH-24" value="域名注册--完成" style="rounded=1;whiteSpace=wrap;html=1;sketch=0;fontColor=#1D3557;strokeColor=#457B9D;fillColor=#A8DADC;" parent="WIyWlLk6GJQsqaUBKTNV-1" vertex="1">
          <mxGeometry x="245" y="920" width="120" height="60" as="geometry" />
        </mxCell>
        <mxCell id="JDIJm_OMKIt9SrlVdLeH-46" style="edgeStyle=orthogonalEdgeStyle;curved=0;rounded=1;sketch=0;orthogonalLoop=1;jettySize=auto;html=1;fontColor=#1D3557;strokeColor=#457B9D;fillColor=#A8DADC;" parent="WIyWlLk6GJQsqaUBKTNV-1" source="JDIJm_OMKIt9SrlVdLeH-42" target="JDIJm_OMKIt9SrlVdLeH-10" edge="1">
          <mxGeometry relative="1" as="geometry">
            <Array as="points">
              <mxPoint x="450" y="250" />
              <mxPoint x="305" y="250" />
            </Array>
          </mxGeometry>
        </mxCell>
        <mxCell id="JDIJm_OMKIt9SrlVdLeH-42" value="通过邮件形式提出新域名需求" style="ellipse;whiteSpace=wrap;html=1;rounded=0;sketch=0;strokeColor=#82b366;fillColor=#d5e8d4;gradientColor=#97d077;" parent="WIyWlLk6GJQsqaUBKTNV-1" vertex="1">
          <mxGeometry x="390" y="150" width="120" height="80" as="geometry" />
        </mxCell>
        <mxCell id="JDIJm_OMKIt9SrlVdLeH-49" style="edgeStyle=orthogonalEdgeStyle;curved=0;rounded=1;sketch=0;orthogonalLoop=1;jettySize=auto;html=1;fontColor=#1D3557;strokeColor=#457B9D;fillColor=#A8DADC;" parent="WIyWlLk6GJQsqaUBKTNV-1" source="JDIJm_OMKIt9SrlVdLeH-47" target="JDIJm_OMKIt9SrlVdLeH-14" edge="1">
          <mxGeometry relative="1" as="geometry">
            <Array as="points">
              <mxPoint x="450" y="450" />
              <mxPoint x="305" y="450" />
            </Array>
          </mxGeometry>
        </mxCell>
        <mxCell id="JDIJm_OMKIt9SrlVdLeH-47" value="通过运维平台域名注册工单发起注册" style="ellipse;whiteSpace=wrap;html=1;rounded=0;sketch=0;strokeColor=#82b366;fillColor=#d5e8d4;gradientColor=#97d077;" parent="WIyWlLk6GJQsqaUBKTNV-1" vertex="1">
          <mxGeometry x="390" y="350" width="120" height="80" as="geometry" />
        </mxCell>
        <mxCell id="JDIJm_OMKIt9SrlVdLeH-55" style="edgeStyle=orthogonalEdgeStyle;curved=0;rounded=1;sketch=0;orthogonalLoop=1;jettySize=auto;html=1;fontColor=#1D3557;strokeColor=#457B9D;fillColor=#A8DADC;" parent="WIyWlLk6GJQsqaUBKTNV-1" source="JDIJm_OMKIt9SrlVdLeH-50" target="JDIJm_OMKIt9SrlVdLeH-22" edge="1">
          <mxGeometry relative="1" as="geometry">
            <Array as="points">
              <mxPoint x="450" y="690" />
              <mxPoint x="305" y="690" />
            </Array>
          </mxGeometry>
        </mxCell>
        <mxCell id="JDIJm_OMKIt9SrlVdLeH-50" value="填写注册信息" style="ellipse;whiteSpace=wrap;html=1;rounded=0;sketch=0;strokeColor=#82b366;fillColor=#d5e8d4;gradientColor=#97d077;" parent="WIyWlLk6GJQsqaUBKTNV-1" vertex="1">
          <mxGeometry x="390" y="575" width="120" height="80" as="geometry" />
        </mxCell>
        <mxCell id="JDIJm_OMKIt9SrlVdLeH-52" style="edgeStyle=orthogonalEdgeStyle;curved=0;rounded=1;sketch=0;orthogonalLoop=1;jettySize=auto;html=1;fontColor=#1D3557;strokeColor=#457B9D;fillColor=#A8DADC;" parent="WIyWlLk6GJQsqaUBKTNV-1" source="JDIJm_OMKIt9SrlVdLeH-51" target="JDIJm_OMKIt9SrlVdLeH-50" edge="1">
          <mxGeometry relative="1" as="geometry" />
        </mxCell>
        <mxCell id="JDIJm_OMKIt9SrlVdLeH-51" value="域名系统-系统设置" style="rounded=1;whiteSpace=wrap;html=1;sketch=0;fontColor=#1D3557;strokeColor=#457B9D;fillColor=#A8DADC;" parent="WIyWlLk6GJQsqaUBKTNV-1" vertex="1">
          <mxGeometry x="660" y="585" width="120" height="60" as="geometry" />
        </mxCell>
        <mxCell id="JDIJm_OMKIt9SrlVdLeH-53" value="提供部分配置信息" style="text;html=1;strokeColor=none;fillColor=none;align=center;verticalAlign=middle;whiteSpace=wrap;rounded=0;sketch=0;fontColor=#1D3557;" parent="WIyWlLk6GJQsqaUBKTNV-1" vertex="1">
          <mxGeometry x="550" y="600" width="60" height="30" as="geometry" />
        </mxCell>
        <mxCell id="JDIJm_OMKIt9SrlVdLeH-58" style="edgeStyle=orthogonalEdgeStyle;curved=0;rounded=1;sketch=0;orthogonalLoop=1;jettySize=auto;html=1;entryX=0.5;entryY=0;entryDx=0;entryDy=0;fontColor=#1D3557;strokeColor=#457B9D;fillColor=#A8DADC;" parent="WIyWlLk6GJQsqaUBKTNV-1" source="JDIJm_OMKIt9SrlVdLeH-56" target="JDIJm_OMKIt9SrlVdLeH-24" edge="1">
          <mxGeometry relative="1" as="geometry">
            <Array as="points">
              <mxPoint x="450" y="900" />
              <mxPoint x="305" y="900" />
            </Array>
          </mxGeometry>
        </mxCell>
        <mxCell id="JDIJm_OMKIt9SrlVdLeH-61" value="" style="edgeStyle=orthogonalEdgeStyle;curved=0;rounded=1;sketch=0;orthogonalLoop=1;jettySize=auto;html=1;fontColor=#1D3557;strokeColor=#457B9D;fillColor=#A8DADC;" parent="WIyWlLk6GJQsqaUBKTNV-1" source="JDIJm_OMKIt9SrlVdLeH-56" target="JDIJm_OMKIt9SrlVdLeH-59" edge="1">
          <mxGeometry relative="1" as="geometry" />
        </mxCell>
        <mxCell id="JDIJm_OMKIt9SrlVdLeH-56" value="选择账号，发起购买" style="ellipse;whiteSpace=wrap;html=1;rounded=0;sketch=0;strokeColor=#82b366;fillColor=#d5e8d4;gradientColor=#97d077;" parent="WIyWlLk6GJQsqaUBKTNV-1" vertex="1">
          <mxGeometry x="390" y="790" width="120" height="80" as="geometry" />
        </mxCell>
        <mxCell id="JDIJm_OMKIt9SrlVdLeH-64" style="edgeStyle=orthogonalEdgeStyle;curved=0;rounded=1;sketch=0;orthogonalLoop=1;jettySize=auto;html=1;entryX=0.045;entryY=0.503;entryDx=0;entryDy=0;entryPerimeter=0;fontColor=#1D3557;strokeColor=#457B9D;fillColor=#A8DADC;" parent="WIyWlLk6GJQsqaUBKTNV-1" source="JDIJm_OMKIt9SrlVdLeH-59" target="JDIJm_OMKIt9SrlVdLeH-62" edge="1">
          <mxGeometry relative="1" as="geometry" />
        </mxCell>
        <mxCell id="JDIJm_OMKIt9SrlVdLeH-91" style="edgeStyle=orthogonalEdgeStyle;curved=0;rounded=1;sketch=0;orthogonalLoop=1;jettySize=auto;html=1;entryX=0.996;entryY=0.06;entryDx=0;entryDy=0;entryPerimeter=0;fontColor=#1D3557;strokeColor=#457B9D;fillColor=#A8DADC;" parent="WIyWlLk6GJQsqaUBKTNV-1" source="JDIJm_OMKIt9SrlVdLeH-59" target="JDIJm_OMKIt9SrlVdLeH-69" edge="1">
          <mxGeometry relative="1" as="geometry">
            <Array as="points">
              <mxPoint x="640" y="1097" />
            </Array>
          </mxGeometry>
        </mxCell>
        <mxCell id="JDIJm_OMKIt9SrlVdLeH-59" value="node爬虫项目" style="rhombus;whiteSpace=wrap;html=1;rounded=0;sketch=0;strokeColor=#d6b656;fillColor=#fff2cc;gradientColor=#ffd966;" parent="WIyWlLk6GJQsqaUBKTNV-1" vertex="1">
          <mxGeometry x="600" y="790" width="80" height="80" as="geometry" />
        </mxCell>
        <mxCell id="JDIJm_OMKIt9SrlVdLeH-90" style="edgeStyle=orthogonalEdgeStyle;curved=0;rounded=1;sketch=0;orthogonalLoop=1;jettySize=auto;html=1;entryX=0.5;entryY=1;entryDx=0;entryDy=0;fontColor=#1D3557;strokeColor=#457B9D;fillColor=#A8DADC;" parent="WIyWlLk6GJQsqaUBKTNV-1" source="JDIJm_OMKIt9SrlVdLeH-62" target="JDIJm_OMKIt9SrlVdLeH-59" edge="1">
          <mxGeometry relative="1" as="geometry">
            <Array as="points">
              <mxPoint x="887" y="1050" />
              <mxPoint x="660" y="1050" />
              <mxPoint x="660" y="870" />
            </Array>
          </mxGeometry>
        </mxCell>
        <mxCell id="JDIJm_OMKIt9SrlVdLeH-62" value="易名中国" style="ellipse;shape=cloud;whiteSpace=wrap;html=1;rounded=0;sketch=0;fillColor=#ffff88;strokeColor=#36393d;" parent="WIyWlLk6GJQsqaUBKTNV-1" vertex="1">
          <mxGeometry x="827" y="790" width="120" height="80" as="geometry" />
        </mxCell>
        <mxCell id="JDIJm_OMKIt9SrlVdLeH-68" value="" style="edgeStyle=orthogonalEdgeStyle;curved=0;rounded=1;sketch=0;orthogonalLoop=1;jettySize=auto;html=1;fontColor=#1D3557;strokeColor=#457B9D;fillColor=#A8DADC;" parent="WIyWlLk6GJQsqaUBKTNV-1" source="JDIJm_OMKIt9SrlVdLeH-65" target="JDIJm_OMKIt9SrlVdLeH-67" edge="1">
          <mxGeometry relative="1" as="geometry" />
        </mxCell>
        <mxCell id="JDIJm_OMKIt9SrlVdLeH-65" value="模拟人工购买动作" style="text;html=1;strokeColor=none;fillColor=none;align=center;verticalAlign=middle;whiteSpace=wrap;rounded=0;sketch=0;fontColor=#1D3557;" parent="WIyWlLk6GJQsqaUBKTNV-1" vertex="1">
          <mxGeometry x="730" y="800" width="60" height="30" as="geometry" />
        </mxCell>
        <mxCell id="JDIJm_OMKIt9SrlVdLeH-67" value="检测域名合法&lt;br&gt;选择模板&lt;br&gt;进行购买&lt;br&gt;修改dns指向" style="rounded=0;whiteSpace=wrap;html=1;sketch=0;fontColor=#1D3557;strokeColor=#457B9D;fillColor=#A8DADC;" parent="WIyWlLk6GJQsqaUBKTNV-1" vertex="1">
          <mxGeometry x="700" y="870" width="120" height="130" as="geometry" />
        </mxCell>
        <mxCell id="JDIJm_OMKIt9SrlVdLeH-82" style="edgeStyle=orthogonalEdgeStyle;curved=0;rounded=1;sketch=0;orthogonalLoop=1;jettySize=auto;html=1;entryX=0.5;entryY=1;entryDx=0;entryDy=0;fontColor=#1D3557;strokeColor=#457B9D;fillColor=#A8DADC;" parent="WIyWlLk6GJQsqaUBKTNV-1" source="JDIJm_OMKIt9SrlVdLeH-69" target="JDIJm_OMKIt9SrlVdLeH-24" edge="1">
          <mxGeometry relative="1" as="geometry" />
        </mxCell>
        <mxCell id="JDIJm_OMKIt9SrlVdLeH-89" style="edgeStyle=orthogonalEdgeStyle;curved=0;rounded=1;sketch=0;orthogonalLoop=1;jettySize=auto;html=1;entryX=0.5;entryY=0;entryDx=0;entryDy=0;entryPerimeter=0;fontColor=#1D3557;strokeColor=#457B9D;fillColor=#A8DADC;" parent="WIyWlLk6GJQsqaUBKTNV-1" source="JDIJm_OMKIt9SrlVdLeH-69" target="JDIJm_OMKIt9SrlVdLeH-84" edge="1">
          <mxGeometry relative="1" as="geometry" />
        </mxCell>
        <mxCell id="JDIJm_OMKIt9SrlVdLeH-69" value="数据库" style="shape=cylinder3;whiteSpace=wrap;html=1;boundedLbl=1;backgroundOutline=1;size=15;rounded=0;sketch=0;fontColor=#1D3557;strokeColor=#457B9D;fillColor=#A8DADC;" parent="WIyWlLk6GJQsqaUBKTNV-1" vertex="1">
          <mxGeometry x="490" y="1089" width="110" height="140" as="geometry" />
        </mxCell>
        <mxCell id="JDIJm_OMKIt9SrlVdLeH-83" value="更改域名注册完成状态" style="text;html=1;strokeColor=none;fillColor=none;align=center;verticalAlign=middle;whiteSpace=wrap;rounded=0;sketch=0;fontColor=#1D3557;" parent="WIyWlLk6GJQsqaUBKTNV-1" vertex="1">
          <mxGeometry x="245" y="1080" width="60" height="30" as="geometry" />
        </mxCell>
        <mxCell id="JDIJm_OMKIt9SrlVdLeH-86" value="提供使用" style="text;html=1;strokeColor=none;fillColor=none;align=center;verticalAlign=middle;whiteSpace=wrap;rounded=0;sketch=0;fontColor=#1D3557;" parent="WIyWlLk6GJQsqaUBKTNV-1" vertex="1">
          <mxGeometry x="550" y="1260" width="60" height="30" as="geometry" />
        </mxCell>
        <mxCell id="JDIJm_OMKIt9SrlVdLeH-84" value="业务" style="shape=umlActor;verticalLabelPosition=bottom;verticalAlign=top;html=1;outlineConnect=0;rounded=0;sketch=0;fontColor=#1D3557;strokeColor=#457B9D;fillColor=#A8DADC;" parent="WIyWlLk6GJQsqaUBKTNV-1" vertex="1">
          <mxGeometry x="530" y="1330" width="30" height="60" as="geometry" />
        </mxCell>
        <mxCell id="JDIJm_OMKIt9SrlVdLeH-92" value="添加到dnspod" style="text;html=1;strokeColor=none;fillColor=none;align=center;verticalAlign=middle;whiteSpace=wrap;rounded=0;sketch=0;fontColor=#1D3557;" parent="WIyWlLk6GJQsqaUBKTNV-1" vertex="1">
          <mxGeometry x="580" y="935" width="60" height="30" as="geometry" />
        </mxCell>
        <mxCell id="JDIJm_OMKIt9SrlVdLeH-93" value="入库" style="text;html=1;strokeColor=none;fillColor=none;align=center;verticalAlign=middle;whiteSpace=wrap;rounded=0;sketch=0;fontColor=#1D3557;" parent="WIyWlLk6GJQsqaUBKTNV-1" vertex="1">
          <mxGeometry x="580" y="980" width="60" height="30" as="geometry" />
        </mxCell>
        <mxCell id="JDIJm_OMKIt9SrlVdLeH-95" style="edgeStyle=orthogonalEdgeStyle;curved=0;rounded=1;sketch=0;orthogonalLoop=1;jettySize=auto;html=1;fontColor=#1D3557;strokeColor=#457B9D;fillColor=#A8DADC;" parent="WIyWlLk6GJQsqaUBKTNV-1" source="JDIJm_OMKIt9SrlVdLeH-94" edge="1">
          <mxGeometry relative="1" as="geometry">
            <mxPoint x="610" y="1170" as="targetPoint" />
          </mxGeometry>
        </mxCell>
        <mxCell id="JDIJm_OMKIt9SrlVdLeH-98" style="edgeStyle=orthogonalEdgeStyle;curved=0;rounded=1;sketch=0;orthogonalLoop=1;jettySize=auto;html=1;fontColor=#1D3557;strokeColor=#457B9D;fillColor=#A8DADC;" parent="WIyWlLk6GJQsqaUBKTNV-1" source="JDIJm_OMKIt9SrlVdLeH-94" target="JDIJm_OMKIt9SrlVdLeH-97" edge="1">
          <mxGeometry relative="1" as="geometry" />
        </mxCell>
        <mxCell id="JDIJm_OMKIt9SrlVdLeH-94" value="定时任务" style="rhombus;whiteSpace=wrap;html=1;rounded=0;sketch=0;strokeColor=#d6b656;fillColor=#fff2cc;gradientColor=#ffd966;" parent="WIyWlLk6GJQsqaUBKTNV-1" vertex="1">
          <mxGeometry x="790" y="1130" width="80" height="80" as="geometry" />
        </mxCell>
        <mxCell id="JDIJm_OMKIt9SrlVdLeH-96" value="同步域名数据" style="text;html=1;strokeColor=none;fillColor=none;align=center;verticalAlign=middle;whiteSpace=wrap;rounded=0;sketch=0;fontColor=#1D3557;" parent="WIyWlLk6GJQsqaUBKTNV-1" vertex="1">
          <mxGeometry x="680" y="1139" width="60" height="30" as="geometry" />
        </mxCell>
        <mxCell id="JDIJm_OMKIt9SrlVdLeH-97" value="易名中国&lt;br&gt;美橙互联&lt;br&gt;万网&lt;br&gt;AWS" style="ellipse;shape=cloud;whiteSpace=wrap;html=1;rounded=0;sketch=0;strokeColor=#d6b656;fillColor=#fff2cc;" parent="WIyWlLk6GJQsqaUBKTNV-1" vertex="1">
          <mxGeometry x="980" y="1130" width="120" height="80" as="geometry" />
        </mxCell>
        <mxCell id="JDIJm_OMKIt9SrlVdLeH-99" value="拉取" style="text;html=1;strokeColor=none;fillColor=none;align=center;verticalAlign=middle;whiteSpace=wrap;rounded=0;sketch=0;fontColor=#1D3557;" parent="WIyWlLk6GJQsqaUBKTNV-1" vertex="1">
          <mxGeometry x="900" y="1139" width="60" height="30" as="geometry" />
        </mxCell>
        <mxCell id="OALGBYEJ4ryJUJ2sxxQv-1" value="域名生命周期" style="rounded=0;whiteSpace=wrap;html=1;fillColor=#dae8fc;strokeColor=#6c8ebf;fontSize=19;" vertex="1" parent="WIyWlLk6GJQsqaUBKTNV-1">
          <mxGeometry x="70" y="-1169" width="120" height="60" as="geometry" />
        </mxCell>
        <mxCell id="OALGBYEJ4ryJUJ2sxxQv-5" value="" style="edgeStyle=orthogonalEdgeStyle;rounded=0;orthogonalLoop=1;jettySize=auto;html=1;fontSize=19;" edge="1" parent="WIyWlLk6GJQsqaUBKTNV-1" source="OALGBYEJ4ryJUJ2sxxQv-2" target="OALGBYEJ4ryJUJ2sxxQv-3">
          <mxGeometry relative="1" as="geometry" />
        </mxCell>
        <mxCell id="OALGBYEJ4ryJUJ2sxxQv-2" value="域名注册" style="rounded=1;whiteSpace=wrap;html=1;fontSize=19;fillColor=#dae8fc;strokeColor=#6c8ebf;" vertex="1" parent="WIyWlLk6GJQsqaUBKTNV-1">
          <mxGeometry x="70" y="-960" width="120" height="60" as="geometry" />
        </mxCell>
        <mxCell id="OALGBYEJ4ryJUJ2sxxQv-6" value="" style="edgeStyle=orthogonalEdgeStyle;rounded=0;orthogonalLoop=1;jettySize=auto;html=1;fontSize=19;" edge="1" parent="WIyWlLk6GJQsqaUBKTNV-1" source="OALGBYEJ4ryJUJ2sxxQv-3" target="OALGBYEJ4ryJUJ2sxxQv-4">
          <mxGeometry relative="1" as="geometry" />
        </mxCell>
        <mxCell id="OALGBYEJ4ryJUJ2sxxQv-9" style="edgeStyle=orthogonalEdgeStyle;orthogonalLoop=1;jettySize=auto;html=1;entryX=1;entryY=0.5;entryDx=0;entryDy=0;fontSize=19;curved=1;" edge="1" parent="WIyWlLk6GJQsqaUBKTNV-1" source="OALGBYEJ4ryJUJ2sxxQv-3" target="OALGBYEJ4ryJUJ2sxxQv-7">
          <mxGeometry relative="1" as="geometry">
            <Array as="points">
              <mxPoint x="434" y="-930" />
              <mxPoint x="434" y="-1060" />
            </Array>
          </mxGeometry>
        </mxCell>
        <mxCell id="OALGBYEJ4ryJUJ2sxxQv-11" style="edgeStyle=orthogonalEdgeStyle;orthogonalLoop=1;jettySize=auto;html=1;fontSize=19;entryX=0;entryY=0.5;entryDx=0;entryDy=0;curved=1;" edge="1" parent="WIyWlLk6GJQsqaUBKTNV-1" source="OALGBYEJ4ryJUJ2sxxQv-3" target="OALGBYEJ4ryJUJ2sxxQv-8">
          <mxGeometry relative="1" as="geometry">
            <mxPoint x="280" y="-820" as="targetPoint" />
            <Array as="points">
              <mxPoint x="274" y="-930" />
              <mxPoint x="274" y="-790" />
            </Array>
          </mxGeometry>
        </mxCell>
        <mxCell id="OALGBYEJ4ryJUJ2sxxQv-3" value="域名使用" style="rounded=1;whiteSpace=wrap;html=1;fontSize=19;fillColor=#dae8fc;strokeColor=#6c8ebf;" vertex="1" parent="WIyWlLk6GJQsqaUBKTNV-1">
          <mxGeometry x="294" y="-960" width="120" height="60" as="geometry" />
        </mxCell>
        <mxCell id="OALGBYEJ4ryJUJ2sxxQv-4" value="域名注销" style="rounded=1;whiteSpace=wrap;html=1;fontSize=19;fillColor=#dae8fc;strokeColor=#6c8ebf;" vertex="1" parent="WIyWlLk6GJQsqaUBKTNV-1">
          <mxGeometry x="530" y="-960" width="120" height="60" as="geometry" />
        </mxCell>
        <mxCell id="OALGBYEJ4ryJUJ2sxxQv-10" style="edgeStyle=orthogonalEdgeStyle;orthogonalLoop=1;jettySize=auto;html=1;entryX=0;entryY=0.5;entryDx=0;entryDy=0;fontSize=19;curved=1;" edge="1" parent="WIyWlLk6GJQsqaUBKTNV-1" source="OALGBYEJ4ryJUJ2sxxQv-7" target="OALGBYEJ4ryJUJ2sxxQv-3">
          <mxGeometry relative="1" as="geometry">
            <Array as="points">
              <mxPoint x="274" y="-1060" />
              <mxPoint x="274" y="-930" />
            </Array>
          </mxGeometry>
        </mxCell>
        <mxCell id="OALGBYEJ4ryJUJ2sxxQv-7" value="域名续费" style="ellipse;whiteSpace=wrap;html=1;fontSize=19;" vertex="1" parent="WIyWlLk6GJQsqaUBKTNV-1">
          <mxGeometry x="294" y="-1100" width="120" height="80" as="geometry" />
        </mxCell>
        <mxCell id="OALGBYEJ4ryJUJ2sxxQv-12" style="edgeStyle=orthogonalEdgeStyle;orthogonalLoop=1;jettySize=auto;html=1;entryX=1;entryY=0.5;entryDx=0;entryDy=0;fontSize=19;curved=1;" edge="1" parent="WIyWlLk6GJQsqaUBKTNV-1" source="OALGBYEJ4ryJUJ2sxxQv-8" target="OALGBYEJ4ryJUJ2sxxQv-3">
          <mxGeometry relative="1" as="geometry">
            <Array as="points">
              <mxPoint x="434" y="-790" />
              <mxPoint x="434" y="-930" />
            </Array>
          </mxGeometry>
        </mxCell>
        <mxCell id="OALGBYEJ4ryJUJ2sxxQv-8" value="备案&lt;br&gt;解析&lt;br&gt;证书" style="ellipse;whiteSpace=wrap;html=1;fontSize=19;" vertex="1" parent="WIyWlLk6GJQsqaUBKTNV-1">
          <mxGeometry x="294" y="-830" width="120" height="80" as="geometry" />
        </mxCell>
        <mxCell id="OALGBYEJ4ryJUJ2sxxQv-13" value="域名备案" style="rounded=0;whiteSpace=wrap;html=1;fontSize=19;fillColor=#dae8fc;strokeColor=#6c8ebf;" vertex="1" parent="WIyWlLk6GJQsqaUBKTNV-1">
          <mxGeometry x="140" y="3100" width="120" height="60" as="geometry" />
        </mxCell>
        <mxCell id="OALGBYEJ4ryJUJ2sxxQv-16" style="edgeStyle=orthogonalEdgeStyle;curved=1;orthogonalLoop=1;jettySize=auto;html=1;fontSize=19;" edge="1" parent="WIyWlLk6GJQsqaUBKTNV-1" source="OALGBYEJ4ryJUJ2sxxQv-14" target="OALGBYEJ4ryJUJ2sxxQv-15">
          <mxGeometry relative="1" as="geometry">
            <Array as="points">
              <mxPoint x="560" y="3250" />
              <mxPoint x="560" y="3550" />
            </Array>
          </mxGeometry>
        </mxCell>
        <mxCell id="OALGBYEJ4ryJUJ2sxxQv-14" value="业务" style="shape=umlActor;verticalLabelPosition=bottom;verticalAlign=top;html=1;outlineConnect=0;fontSize=19;" vertex="1" parent="WIyWlLk6GJQsqaUBKTNV-1">
          <mxGeometry x="464" y="3220" width="30" height="60" as="geometry" />
        </mxCell>
        <mxCell id="OALGBYEJ4ryJUJ2sxxQv-18" style="edgeStyle=orthogonalEdgeStyle;curved=1;orthogonalLoop=1;jettySize=auto;html=1;fontSize=19;" edge="1" parent="WIyWlLk6GJQsqaUBKTNV-1" source="OALGBYEJ4ryJUJ2sxxQv-15" target="OALGBYEJ4ryJUJ2sxxQv-14">
          <mxGeometry relative="1" as="geometry">
            <Array as="points">
              <mxPoint x="400" y="3550" />
              <mxPoint x="400" y="3250" />
            </Array>
          </mxGeometry>
        </mxCell>
        <mxCell id="OALGBYEJ4ryJUJ2sxxQv-15" value="资源" style="shape=umlActor;verticalLabelPosition=bottom;verticalAlign=top;html=1;outlineConnect=0;fontSize=19;" vertex="1" parent="WIyWlLk6GJQsqaUBKTNV-1">
          <mxGeometry x="464" y="3520" width="30" height="60" as="geometry" />
        </mxCell>
        <mxCell id="OALGBYEJ4ryJUJ2sxxQv-17" value="告知那个域名，哪里备案" style="text;html=1;strokeColor=none;fillColor=none;align=center;verticalAlign=middle;whiteSpace=wrap;rounded=0;fontSize=19;" vertex="1" parent="WIyWlLk6GJQsqaUBKTNV-1">
          <mxGeometry x="560" y="3390" width="230" height="30" as="geometry" />
        </mxCell>
        <mxCell id="OALGBYEJ4ryJUJ2sxxQv-19" value="备案结束" style="text;html=1;strokeColor=none;fillColor=none;align=center;verticalAlign=middle;whiteSpace=wrap;rounded=0;fontSize=19;" vertex="1" parent="WIyWlLk6GJQsqaUBKTNV-1">
          <mxGeometry x="310" y="3390" width="90" height="30" as="geometry" />
        </mxCell>
        <mxCell id="OALGBYEJ4ryJUJ2sxxQv-26" value="手动备案" style="rounded=1;whiteSpace=wrap;html=1;fontSize=19;" vertex="1" parent="WIyWlLk6GJQsqaUBKTNV-1">
          <mxGeometry x="419" y="3610" width="120" height="60" as="geometry" />
        </mxCell>
        <mxCell id="OALGBYEJ4ryJUJ2sxxQv-27" value="域名解析" style="rounded=1;whiteSpace=wrap;html=1;fontSize=19;" vertex="1" parent="WIyWlLk6GJQsqaUBKTNV-1">
          <mxGeometry x="130" y="3750" width="120" height="60" as="geometry" />
        </mxCell>
        <mxCell id="OALGBYEJ4ryJUJ2sxxQv-32" style="edgeStyle=orthogonalEdgeStyle;curved=1;orthogonalLoop=1;jettySize=auto;html=1;entryX=-0.02;entryY=0.664;entryDx=0;entryDy=0;entryPerimeter=0;fontSize=19;" edge="1" parent="WIyWlLk6GJQsqaUBKTNV-1" source="OALGBYEJ4ryJUJ2sxxQv-28" target="OALGBYEJ4ryJUJ2sxxQv-29">
          <mxGeometry relative="1" as="geometry">
            <Array as="points">
              <mxPoint x="385" y="3820" />
              <mxPoint x="788" y="3820" />
            </Array>
          </mxGeometry>
        </mxCell>
        <mxCell id="OALGBYEJ4ryJUJ2sxxQv-33" style="edgeStyle=orthogonalEdgeStyle;curved=1;orthogonalLoop=1;jettySize=auto;html=1;fontSize=19;" edge="1" parent="WIyWlLk6GJQsqaUBKTNV-1" source="OALGBYEJ4ryJUJ2sxxQv-28" target="OALGBYEJ4ryJUJ2sxxQv-30">
          <mxGeometry relative="1" as="geometry" />
        </mxCell>
        <mxCell id="OALGBYEJ4ryJUJ2sxxQv-34" style="edgeStyle=orthogonalEdgeStyle;curved=1;orthogonalLoop=1;jettySize=auto;html=1;entryX=0;entryY=0.5;entryDx=0;entryDy=0;fontSize=19;" edge="1" parent="WIyWlLk6GJQsqaUBKTNV-1" source="OALGBYEJ4ryJUJ2sxxQv-28" target="OALGBYEJ4ryJUJ2sxxQv-31">
          <mxGeometry relative="1" as="geometry">
            <Array as="points">
              <mxPoint x="385" y="4150" />
            </Array>
          </mxGeometry>
        </mxCell>
        <mxCell id="OALGBYEJ4ryJUJ2sxxQv-28" value="域名解析" style="rounded=1;whiteSpace=wrap;html=1;fontSize=19;" vertex="1" parent="WIyWlLk6GJQsqaUBKTNV-1">
          <mxGeometry x="331" y="3944" width="109" height="72" as="geometry" />
        </mxCell>
        <mxCell id="OALGBYEJ4ryJUJ2sxxQv-29" value="国内解析" style="ellipse;whiteSpace=wrap;html=1;fontSize=19;" vertex="1" parent="WIyWlLk6GJQsqaUBKTNV-1">
          <mxGeometry x="790" y="3770" width="120" height="80" as="geometry" />
        </mxCell>
        <mxCell id="OALGBYEJ4ryJUJ2sxxQv-30" value="海外解析" style="ellipse;whiteSpace=wrap;html=1;fontSize=19;" vertex="1" parent="WIyWlLk6GJQsqaUBKTNV-1">
          <mxGeometry x="790" y="3940" width="120" height="80" as="geometry" />
        </mxCell>
        <mxCell id="OALGBYEJ4ryJUJ2sxxQv-31" value="内网解析" style="ellipse;whiteSpace=wrap;html=1;fontSize=19;" vertex="1" parent="WIyWlLk6GJQsqaUBKTNV-1">
          <mxGeometry x="790" y="4110" width="120" height="80" as="geometry" />
        </mxCell>
        <mxCell id="OALGBYEJ4ryJUJ2sxxQv-35" value="dnspod" style="ellipse;shape=cloud;whiteSpace=wrap;html=1;fontSize=19;" vertex="1" parent="WIyWlLk6GJQsqaUBKTNV-1">
          <mxGeometry x="1100" y="3770" width="120" height="80" as="geometry" />
        </mxCell>
        <mxCell id="OALGBYEJ4ryJUJ2sxxQv-36" value="router53" style="ellipse;shape=cloud;whiteSpace=wrap;html=1;fontSize=19;" vertex="1" parent="WIyWlLk6GJQsqaUBKTNV-1">
          <mxGeometry x="1090" y="3944" width="120" height="80" as="geometry" />
        </mxCell>
        <mxCell id="OALGBYEJ4ryJUJ2sxxQv-37" value="powerdns" style="shape=document;whiteSpace=wrap;html=1;boundedLbl=1;fontSize=19;" vertex="1" parent="WIyWlLk6GJQsqaUBKTNV-1">
          <mxGeometry x="1110" y="4110" width="120" height="80" as="geometry" />
        </mxCell>
        <mxCell id="OALGBYEJ4ryJUJ2sxxQv-39" value="域名注销" style="rounded=0;whiteSpace=wrap;html=1;fillColor=#A8DADC;strokeColor=#457B9D;fontSize=21;fontStyle=0;fontColor=#1D3557;" vertex="1" parent="WIyWlLk6GJQsqaUBKTNV-1">
          <mxGeometry x="80" y="1510" width="120" height="60" as="geometry" />
        </mxCell>
      </root>
    </mxGraphModel>
  </diagram>
</mxfile>
